<svg width="138" height="48" viewBox="0 0 138 48" fill="none" xmlns="http://www.w3.org/2000/svg">
<path d="M11.9993 0H0V21.5162C0.794145 32.836 8.22536 42.5737 18.8571 46.2306L24 48V0H11.9993Z" fill="url(#paint0_linear_1616_3179)"/>
<path d="M36.0007 0H24V48L29.1429 46.2277C39.7775 42.5709 47.2059 32.8317 48 21.5119V0H36.0007Z" fill="url(#paint1_linear_1616_3179)"/>
<g clip-path="url(#clip0_1616_3179)">
<path d="M12.0001 1.91992L1.6001 8.47992L12.0001 15.0399L22.4001 8.47992L12.0001 1.91992ZM12.0001 12.812C9.57803 12.812 7.61456 10.8725 7.61456 8.47992C7.61456 8.10365 7.66317 7.73877 7.75439 7.39071C8.3195 7.29293 8.90065 7.24219 9.49407 7.24219C12.0665 7.24219 14.4124 8.19945 16.1869 9.77261C15.6303 11.5337 13.9663 12.812 12.0001 12.812ZM9.49407 6.62332C8.98284 6.62332 8.48039 6.65896 7.98845 6.72778C8.66959 5.20809 10.2095 4.14785 12.0001 4.14785C14.4222 4.14785 16.3856 6.08738 16.3856 8.47992C16.3856 8.68588 16.3709 8.88837 16.3425 9.08641C14.4911 7.54914 12.1018 6.62332 9.49407 6.62332ZM8.41999 7.51622L8.37789 7.64445H8.24131L8.35183 7.72366L8.30973 7.85189L8.42024 7.77268L8.53076 7.85189L8.48866 7.72366L8.59917 7.64445H8.46259L8.42049 7.51622H8.41999ZM8.85002 9.4659L8.80792 9.33767L8.76582 9.4659H8.62924L8.73976 9.54512L8.69766 9.67335L8.80817 9.59413L8.91869 9.67335L8.87659 9.54512L8.9871 9.4659H8.85053H8.85002ZM8.30597 9.86445L8.27088 9.75751L8.2358 9.86445H8.12203L8.214 9.93055L8.17891 10.0375L8.27088 9.97139L8.36285 10.0375L8.32777 9.93055L8.41974 9.86445H8.30597ZM9.2575 9.23048L9.23746 9.16934L9.21741 9.23048H9.1525L9.20513 9.26836L9.18508 9.3295L9.23771 9.29163L9.29033 9.3295L9.27029 9.26836L9.32291 9.23048H9.25801H9.2575ZM9.66398 9.97164L9.6289 10.0786L9.72087 10.0125L9.81284 10.0786L9.77776 9.97164L9.86973 9.90555H9.75595L9.72087 9.79861L9.68578 9.90555H9.57201L9.66398 9.97164ZM9.47027 10.3454L9.54394 10.3984L9.51588 10.4838L9.58955 10.4311L9.66323 10.4841L9.63516 10.3987L9.70884 10.3457H9.61787L9.5898 10.2603L9.56174 10.3457H9.47077L9.47027 10.3454ZM13.3889 6.88052L13.3468 7.00875H13.2103L13.3208 7.08796L13.2787 7.21619L13.3892 7.13698L13.4997 7.21619L13.4576 7.08796L13.5681 7.00875H13.4315L13.3894 6.88052H13.3889ZM15.0046 10.0224L14.9625 10.1506L15.073 10.0714L15.1835 10.1506L15.1414 10.0224L15.2519 9.94317H15.1153L15.0732 9.81494L15.0311 9.94317H14.8946L15.0051 10.0224H15.0046ZM15.608 10.142L15.6817 10.0892L15.7554 10.1422L15.7273 10.0568L15.801 10.0038H15.71L15.6819 9.91842L15.6539 10.0038H15.5629L15.6366 10.0568L15.6085 10.1422L15.608 10.142ZM15.1031 10.3358L15.195 10.4019L15.1599 10.5088L15.2519 10.4427L15.3439 10.5088L15.3088 10.4019L15.4008 10.3358H15.287L15.2519 10.2288L15.2168 10.3358H15.1031ZM14.139 11.3096L14.1039 11.4166L14.1959 11.3505L14.2878 11.4166L14.2528 11.3096L14.3447 11.2435H14.231L14.1959 11.1366L14.1608 11.2435H14.047L14.139 11.3096ZM14.2179 11.6894L14.1899 11.6037L14.1618 11.6894H14.0708L14.1445 11.7423L14.1164 11.8277L14.1901 11.7748L14.2638 11.8277L14.2357 11.7423L14.3094 11.6894H14.2184H14.2179ZM14.5577 11.0497L14.6314 10.997L14.7051 11.05L14.677 10.9646L14.7507 10.9116H14.6597L14.6317 10.8262L14.6036 10.9116H14.5126L14.5863 10.9646L14.5582 11.05L14.5577 11.0497ZM14.9266 10.7497L14.8915 10.8566L14.9835 10.7905L15.0755 10.8566L15.0404 10.7497L15.1324 10.6836H15.0186L14.9835 10.5766L14.9484 10.6836H14.8347L14.9266 10.7497ZM14.1044 10.967L14.1781 10.9143L14.2518 10.9673L14.2237 10.8819L14.2974 10.8289H14.2064L14.1783 10.7435L14.1503 10.8289H14.0593L14.133 10.8819L14.1049 10.9673L14.1044 10.967ZM10.2724 8.67499L10.2374 8.78193L10.3293 8.71583L10.4213 8.78193L10.3862 8.67499L10.4782 8.60889H10.3644L10.3293 8.50195L10.2942 8.60889H10.1805L10.2724 8.67499ZM13.1479 8.27644L13.1198 8.36184L13.1935 8.30887L13.2671 8.36184L13.2391 8.27644L13.3128 8.22346H13.2218L13.1937 8.13806L13.1656 8.22346H13.0747L13.1484 8.27644H13.1479ZM12.0422 10.3675L12.0001 10.2392L11.958 10.3675H11.8214L11.9319 10.4467L11.8898 10.5749L12.0003 10.4957L12.1109 10.5749L12.0688 10.4467L12.1793 10.3675H12.0427H12.0422ZM12.4504 9.58274L12.4153 9.68968L12.5073 9.62359L12.5993 9.68968L12.5642 9.58274L12.6562 9.51665H12.5424L12.5073 9.40971L12.4722 9.51665H12.3585L12.4504 9.58274ZM11.9081 9.30054L12.0001 9.23445L12.0921 9.30054L12.057 9.1936L12.149 9.12751H12.0352L12.0001 9.02056L11.965 9.12751H11.8512L11.9432 9.1936L11.9081 9.30054ZM11.5129 9.57903L11.4849 9.66443L11.5585 9.61146L11.6322 9.66443L11.6041 9.57903L11.6778 9.52606H11.5869L11.5588 9.4404L11.5307 9.52606H11.4398L11.5134 9.57903H11.5129ZM11.7467 9.87534L11.7267 9.93649L11.7793 9.89861L11.8319 9.93649L11.8119 9.87534L11.8645 9.83747H11.7996L11.7796 9.77633L11.7595 9.83747H11.6946L11.7472 9.87534H11.7467ZM13.1639 11.3497L13.2559 11.4158L13.2208 11.5228L13.3128 11.4567L13.4047 11.5228L13.3696 11.4158L13.4616 11.3497H13.3478L13.3128 11.2428L13.2777 11.3497H13.1639ZM13.643 11.0289L13.615 11.1143L13.6887 11.0613L13.7623 11.1143L13.7343 11.0289L13.8079 10.9759H13.717L13.6889 10.8903L13.6608 10.9759H13.5699L13.6435 11.0289H13.643ZM12.9213 10.923L12.8932 11.0084L12.9669 10.9554L13.0406 11.0084L13.0125 10.923L13.0862 10.87H12.9952L12.9672 10.7843L12.9391 10.87H12.8481L12.9218 10.923H12.9213ZM10.1717 10.8004L10.1296 10.9287L10.2401 10.8494L10.3506 10.9287L10.3085 10.8004L10.419 10.7212H10.2825L10.2404 10.593L10.1983 10.7212H10.0617L10.1722 10.8004H10.1717ZM12.0141 11.8498L12.0001 11.807L11.9861 11.8498H11.9405L11.9773 11.8763L11.9633 11.9191L12.0001 11.8926L12.0369 11.9191L12.0229 11.8763L12.0597 11.8498H12.0141Z" fill="white"/>
</g>
<path d="M122.57 47.7967C118.247 47.7967 115.777 44.6095 115.777 40.506C115.777 36.4224 118.267 33.1953 122.57 33.1953C126.872 33.1953 129.362 36.4224 129.362 40.506C129.362 44.6095 126.892 47.7967 122.57 47.7967ZM122.57 44.988C124.482 44.988 126.056 43.5736 126.056 41.0239V39.9681C126.056 37.4184 124.482 36.004 122.57 36.004C120.657 36.004 119.084 37.4184 119.084 39.9681V41.0239C119.084 43.5736 120.657 44.988 122.57 44.988Z" fill="#201F1E"/>
<path d="M107.839 36.2849H103.517V33.4961H115.389V36.2849H111.066V47.5198H107.839V36.2849Z" fill="#201F1E"/>
<path d="M91.1616 47.5198V33.4961H97.7751C101.082 33.4961 102.835 35.4483 102.835 37.998C102.835 40.5478 101.082 42.4999 97.7751 42.4999H94.3887V47.5198H91.1616ZM99.5679 38.0976V37.8984C99.5679 36.8028 98.8906 36.2451 97.6755 36.2451H94.3887V39.751H97.6755C98.8906 39.751 99.5679 39.1733 99.5679 38.0976Z" fill="#201F1E"/>
<path d="M85.7925 33.4961H89.0195V47.5198H85.7925V33.4961Z" fill="#201F1E"/>
<path d="M72.4097 47.5198V33.4961H79.043C82.3497 33.4961 84.1027 35.4283 84.1027 37.9582C84.1027 40.3287 82.6087 41.982 79.8 42.1812L85.1186 47.5198H80.6565L75.6367 42.3007V47.5198H72.4097ZM80.8358 38.1175V37.9183C80.8358 36.7829 80.1585 36.2052 78.9434 36.2052H75.6367V39.8107H78.9434C80.1585 39.8107 80.8358 39.2131 80.8358 38.1175Z" fill="#201F1E"/>
<path d="M64.7701 44.988C66.5629 44.988 67.3796 43.972 67.5589 42.8964H70.9254C70.4473 45.8445 68.1565 47.7967 64.8896 47.7967C60.4873 47.7967 58.1367 44.6294 58.1367 40.506C58.1367 36.4224 60.5072 33.1953 64.8896 33.1953C68.1366 33.1953 70.4473 35.1873 70.8855 37.9164H67.4792C67.2601 36.8008 66.3637 36.004 64.7701 36.004C62.9374 36.004 61.4434 37.4184 61.4434 39.9681V41.0239C61.4434 43.5736 62.9374 44.988 64.7701 44.988Z" fill="#201F1E"/>
<path d="M86.415 30.9592V16.9355H93.0484C96.3551 16.9355 98.1081 18.8678 98.1081 21.3976C98.1081 23.7681 96.6141 25.4215 93.8054 25.6207L99.124 30.9592H94.6619L89.6421 25.7402V30.9592H86.415ZM94.8412 21.557V21.3578C94.8412 20.2223 94.1639 19.6447 92.9488 19.6447H89.6421V23.2502H92.9488C94.1639 23.2502 94.8412 22.6526 94.8412 21.557Z" fill="#201F1E"/>
<path d="M78.0022 31.2381C73.6796 31.2381 71.2095 28.0509 71.2095 23.9474C71.2095 19.8638 73.6995 16.6367 78.0022 16.6367C82.3049 16.6367 84.7949 19.8638 84.7949 23.9474C84.7949 28.0509 82.3248 31.2381 78.0022 31.2381ZM78.0022 28.4294C79.9145 28.4294 81.4882 27.015 81.4882 24.4653V23.4095C81.4882 20.8598 79.9145 19.4454 78.0022 19.4454C76.0899 19.4454 74.5162 20.8598 74.5162 23.4095V24.4653C74.5162 27.015 76.0899 28.4294 78.0022 28.4294Z" fill="#201F1E"/>
<path d="M58.6753 30.9592V16.9355H65.2887C68.5955 16.9355 70.3484 18.8877 70.3484 21.4375C70.3484 23.9872 68.5955 25.9394 65.2887 25.9394H61.9023V30.9592H58.6753ZM67.0815 21.5371V21.3379C67.0815 20.2423 66.4043 19.6845 65.1891 19.6845H61.9023V23.1904H65.1891C66.4043 23.1904 67.0815 22.6127 67.0815 21.5371Z" fill="#201F1E"/>
<path d="M131.34 14.6978C127.755 14.6978 125.364 12.8453 125.364 10.0963H128.631C128.631 11.4708 129.667 12.1481 131.38 12.1481C133.113 12.1481 133.95 11.411 133.95 10.4549C133.95 9.39912 133.253 9.18 131.798 8.96088L130.045 8.70192C127.476 8.32344 125.663 7.12824 125.663 4.43904C125.663 2.0088 127.755 0.0566406 131.32 0.0566406C134.986 0.0566406 136.998 2.02872 137.037 4.37928H133.77C133.77 3.34344 133.053 2.6064 131.3 2.6064C129.587 2.6064 128.93 3.36336 128.93 4.16016C128.93 5.21592 129.667 5.51472 131.022 5.71392L132.715 5.95296C135.205 6.31152 137.237 7.32744 137.237 10.176C137.237 12.905 134.846 14.6978 131.34 14.6978Z" fill="#201F1E"/>
<path d="M117.629 14.6775C113.306 14.6775 110.836 11.4903 110.836 7.38681C110.836 3.30321 113.326 0.0761719 117.629 0.0761719C121.931 0.0761719 124.421 3.30321 124.421 7.38681C124.421 11.4903 121.951 14.6775 117.629 14.6775ZM117.629 11.8688C119.541 11.8688 121.115 10.4545 121.115 7.90473V6.84897C121.115 4.29921 119.541 2.88489 117.629 2.88489C115.716 2.88489 114.143 4.29921 114.143 6.84897V7.90473C114.143 10.4545 115.716 11.8688 117.629 11.8688Z" fill="#201F1E"/>
<path d="M102.899 3.1638H98.5767V0.375H110.449V3.1638H106.126V14.3987H102.899V3.1638Z" fill="#201F1E"/>
<path d="M84.7427 14.3987V0.375H88.4279L94.0453 9.51828H94.0652V0.375H97.1329V14.3987H93.6668L87.89 4.81716H87.8701V14.3987H84.7427Z" fill="#201F1E"/>
<path d="M76.8056 14.6975C73.1005 14.6975 70.9292 12.3668 70.9292 9.31908V0.375H74.1562V9.21948C74.1562 10.9724 75.1921 11.9087 76.8056 11.9087C78.3992 11.9087 79.435 10.9724 79.435 9.21948V0.375H82.6621V9.31908C82.6621 12.3668 80.4908 14.6975 76.8056 14.6975Z" fill="#201F1E"/>
<path d="M63.5757 14.6975C60.1893 14.6975 58.1973 12.5461 58.1973 9.71748V8.343H61.4243V9.61788C61.4243 11.1119 62.2609 11.8888 63.5757 11.8888C64.8705 11.8888 65.7071 11.1119 65.7071 9.61788V0.375H68.9341V9.71748C68.9341 12.5461 66.9421 14.6975 63.5757 14.6975Z" fill="#201F1E"/>
<defs>
<linearGradient id="paint0_linear_1616_3179" x1="11.9993" y1="0" x2="11.9993" y2="48" gradientUnits="userSpaceOnUse">
<stop stop-color="#6100FF"/>
<stop offset="1" stop-color="#C09AFF"/>
</linearGradient>
<linearGradient id="paint1_linear_1616_3179" x1="36.0007" y1="0" x2="36.0007" y2="48" gradientUnits="userSpaceOnUse">
<stop stop-color="#C09AFF"/>
<stop offset="1" stop-color="#6100FF"/>
</linearGradient>
<clipPath id="clip0_1616_3179">
<rect width="20.8" height="13.12" fill="white" transform="translate(1.6001 1.91992)"/>
</clipPath>
</defs>
</svg>
