<svg width="337" height="120" viewBox="0 0 337 120" fill="none" xmlns="http://www.w3.org/2000/svg">
<g clip-path="url(#clip0_296_1550)">
<path d="M156.289 36.8093C147.353 36.8093 141.396 32.1584 141.396 25.2602H149.539C149.539 28.7111 152.119 30.4117 156.388 30.4117C160.657 30.4117 162.793 28.5619 162.793 26.1619C162.793 23.5134 161.055 22.9631 157.431 22.4128L153.064 21.7631C146.659 20.8117 142.143 17.8117 142.143 11.0625C142.143 4.96313 147.357 0.0637207 156.244 0.0637207C165.13 0.0637207 170.393 5.01283 170.492 10.9134H162.349C162.349 8.31461 160.562 6.4649 156.194 6.4649C151.827 6.4649 150.286 8.36431 150.286 10.3667C150.286 13.0152 152.123 13.7679 155.5 14.2685L159.719 14.8685C165.923 15.7702 170.989 18.3193 170.989 25.4696C170.989 32.6199 165.032 36.8199 156.293 36.8199L156.289 36.8093Z" fill="#201F1E"/>
<path d="M183.436 7.86019H172.664V0.859009H202.253V7.86019H191.481V36.0602H183.44V7.86019H183.436Z" fill="#201F1E"/>
<path d="M223.69 36.0602L221.504 29.7087H207.453L205.317 36.0602H197.026L209.984 0.859009H219.319L232.277 36.0602H223.69ZM214.356 9.36197L209.836 22.7111H219.072L214.454 9.36197H214.356Z" fill="#201F1E"/>
<path d="M235.051 36.0602V0.859009H244.234L258.235 23.8081H258.285V0.859009H265.931V36.0602H257.291L242.894 12.0105H242.845V36.0602H235.051Z" fill="#201F1E"/>
<path d="M285.314 0.859383C296.038 0.859383 302.242 8.60968 302.242 18.4582C302.242 28.3067 296.087 36.057 285.314 36.057H271.316V0.855835H285.314V0.859383ZM285.314 7.86057H279.357V29.0594H285.314C290.08 29.0594 294.004 25.7576 294.004 19.8606V17.0097C294.004 11.1588 290.08 7.86057 285.314 7.86057Z" fill="#201F1E"/>
<path d="M140.551 42.1108H149.039L155.095 64.7119H155.194L161.55 42.0114H168.847L175.301 64.9108H175.4L181.407 42.1108H189.201L179.221 77.3616H171.625L164.874 54.3628H164.775L158.074 77.3616H150.876L140.551 42.1108Z" fill="#201F1E"/>
<path d="M192.048 42.1102H200.092V77.3114H192.048V42.1102Z" fill="#201F1E"/>
<path d="M214.413 49.1082H203.641V42.107H233.23V49.1082H222.458V77.3082H214.413V49.1082Z" fill="#201F1E"/>
<path d="M236.795 42.1102H244.839V55.8108H259.436V42.1102H267.481V77.3114H259.436V62.8119H244.839V77.3114H236.795V42.1102Z" fill="#201F1E"/>
<path d="M158.273 112.21C162.743 112.21 164.777 109.661 165.225 106.959H173.614C172.423 114.358 166.712 119.261 158.573 119.261C147.603 119.261 141.744 111.312 141.744 100.959C141.744 90.6064 147.652 82.6075 158.573 82.6075C166.666 82.6075 172.423 87.6064 173.516 94.4584H165.027C164.481 91.6573 162.246 89.6584 158.277 89.6584C153.708 89.6584 149.986 93.2087 149.986 99.6099V102.258C149.986 108.66 153.708 112.21 158.277 112.21H158.273Z" fill="#201F1E"/>
<path d="M177.31 118.559V83.3582H193.843C202.084 83.3582 206.452 88.2079 206.452 94.5594C206.452 100.51 202.729 104.66 195.729 105.161L208.983 118.559H197.861L185.351 105.459V118.559H177.306H177.31ZM198.309 94.9606V94.46C198.309 91.6091 196.62 90.1606 193.592 90.1606H185.351V99.2103H193.592C196.62 99.2103 198.309 97.7085 198.309 94.9606Z" fill="#201F1E"/>
<path d="M218.743 118.559V105.459L206.479 83.3582H215.169L222.815 97.6091H222.913L230.559 83.3582H239.146L226.784 105.459V118.559H218.74H218.743Z" fill="#201F1E"/>
<path d="M241.839 118.559V83.3582H258.323C266.564 83.3582 270.932 88.2576 270.932 94.6588C270.932 101.06 266.564 105.959 258.323 105.959H249.884V118.559H241.839ZM262.789 94.9109V94.4103C262.789 91.6588 261.1 90.26 258.072 90.26H249.88V99.0612H258.072C261.1 99.0612 262.789 97.6126 262.789 94.9109Z" fill="#201F1E"/>
<path d="M283.405 90.3594H272.633V83.3582H302.222V90.3594H291.45V118.559H283.405V90.3594Z" fill="#201F1E"/>
<path d="M320.116 119.258C309.344 119.258 303.185 111.259 303.185 100.956C303.185 90.6529 309.389 82.6044 320.116 82.6044C330.843 82.6044 337.044 90.7026 337.044 100.956C337.044 111.209 330.889 119.258 320.116 119.258ZM320.116 112.207C324.882 112.207 328.806 108.656 328.806 102.255V99.6067C328.806 93.2055 324.882 89.6553 320.116 89.6553C315.35 89.6553 311.427 93.2055 311.427 99.6067V102.255C311.427 108.656 315.35 112.207 320.116 112.207Z" fill="#201F1E"/>
<path d="M30.2498 0.0605469H0.155945V53.8511C2.14763 82.1505 20.7849 106.495 47.4487 115.637L60.3471 120.061V0.0605469H30.2498Z" fill="url(#paint0_linear_296_1550)"/>
<path d="M90.4432 0.0605469H60.3459V120.061L73.2442 115.63C99.9152 106.488 118.545 82.1398 120.537 53.8404V0.0605469H90.4397H90.4432Z" fill="url(#paint1_linear_296_1550)"/>
</g>
<defs>
<linearGradient id="paint0_linear_296_1550" x1="30.2498" y1="0.0605469" x2="30.2498" y2="120.061" gradientUnits="userSpaceOnUse">
<stop stop-color="#6100FF"/>
<stop offset="1" stop-color="#C09AFF"/>
</linearGradient>
<linearGradient id="paint1_linear_296_1550" x1="90.4432" y1="0.0605469" x2="90.4432" y2="120.061" gradientUnits="userSpaceOnUse">
<stop stop-color="#C09AFF"/>
<stop offset="1" stop-color="#6100FF"/>
<stop offset="1" stop-color="#6100FF"/>
</linearGradient>
<clipPath id="clip0_296_1550">
<rect width="337" height="120" fill="white"/>
</clipPath>
</defs>
</svg>
